<svg version="1.1" xmlns="http://www.w3.org/2000/svg" xmlns:xlink="http://www.w3.org/1999/xlink" x="0px" y="0px" viewBox="0 0 1000 1000" enable-background="new 0 0 1000 1000" xml:space="preserve" style="fill:#f5f5f5;">
<g><path d="M500.1,345.4c-44,0-79.7,34.4-79.7,76.7c0,42.3,35.8,76.7,79.7,76.7c43.9,0,79.7-34.4,79.7-76.7C579.9,379.8,544.1,345.4,500.1,345.4z"/><path d="M500,10C229.4,10,10,229.4,10,500s219.4,490,490,490s490-219.4,490-490S770.6,10,500,10z M500.1,818.5c-72.7-6.1-255.7-252.3-255.7-389.8c0-137.7,114.5-249.3,255.7-249.3c141.2,0,255.7,111.6,255.7,249.3C755.8,566.3,569.5,814.2,500.1,818.5z"/></g>
</svg>