<svg width="32" height="32" xmlns="http://www.w3.org/2000/svg">

    <g>
        <title>background</title>
        <rect fill="none" id="canvas_background" height="602" width="802" y="-1" x="-1" />
    </g>
    <g>
        <title>Layer 1</title>
        <g id="OUTLINE_copy_2">
            <g id="svg_1">
                <path fill="#1f2424" id="svg_2"
                    d="m16,0c-8.836,0 -16,7.164 -16,16s7.164,16 16,16s16,-7.164 16,-16s-7.164,-16 -16,-16zm-4.096,21.951c-1.021,0 -1.85,-0.823 -1.85,-1.843c0,-1.015 0.829,-1.847 1.85,-1.847c1.025,0 1.852,0.833 1.852,1.847c0,1.02 -0.828,1.843 -1.852,1.843zm4.647,-0.003c0,-1.741 -0.677,-3.379 -1.904,-4.604c-1.228,-1.229 -2.859,-1.907 -4.594,-1.907l0,-2.664c5.057,0 9.173,4.116 9.173,9.175l-2.675,0zm4.723,-0.001c0,-6.193 -5.035,-11.234 -11.22,-11.233l0,-2.665c7.66,0 13.893,6.237 13.893,13.898l-2.673,0z" />
            </g>
        </g>
    </g>
</svg>